<svg width="24" height="23" viewBox="0 0 24 23" fill="none" xmlns="http://www.w3.org/2000/svg">
<path d="M11.39 0C10.376 2.487 9.764 4.115 8.635 6.527C9.328 7.261 10.178 8.116 11.558 9.081C10.074 8.471 9.062 7.857 8.306 7.221C6.86 10.237 4.596 14.533 0 22.79C3.612 20.705 6.412 19.42 9.021 18.928C8.90328 18.4209 8.84588 17.9016 8.85 17.381L8.853 17.266C8.911 14.951 10.114 13.171 11.54 13.293C12.966 13.413 14.074 15.389 14.018 17.702C14.0093 18.1201 13.9604 18.5363 13.872 18.945C16.452 19.45 19.224 20.732 22.786 22.789C22.084 21.496 21.456 20.33 20.857 19.219C19.914 18.489 18.931 17.537 16.924 16.506C18.304 16.865 19.291 17.278 20.061 17.74C13.971 6.406 13.478 4.9 11.39 0ZM22.898 20.755V20.132H22.664V20.048H23.226V20.132H22.992V20.755H23.323V20.048H23.465L23.632 20.548L23.666 20.655C23.6777 20.6167 23.6903 20.5787 23.704 20.541L23.874 20.048H24V20.755H23.909V20.162L23.703 20.755H23.619L23.414 20.153V20.755H23.323" fill="white"/>
</svg>
