<svg width="330" height="330" viewBox="0 0 330 330" fill="none" xmlns="http://www.w3.org/2000/svg">
<circle cx="165" cy="165" r="161.535" fill="white" stroke="black" stroke-width="6.93"/>
<rect x="162.36" y="294.36" width="5.5" height="22" fill="black"/>
<rect x="162.36" y="13.86" width="5.5" height="22" fill="black"/>
<rect x="35.8599" y="162.36" width="5.5" height="22" transform="rotate(90 35.8599 162.36)" fill="black"/>
<rect x="316.36" y="162.36" width="5.5" height="22" transform="rotate(90 316.36 162.36)" fill="black"/>
<rect x="71.772" y="254.559" width="5.5" height="22" transform="rotate(45 71.772 254.559)" fill="black"/>
<rect x="270.115" y="56.2156" width="5.5" height="22" transform="rotate(45 270.115 56.2156)" fill="black"/>
<rect x="75.6611" y="71.7719" width="5.5" height="22" transform="rotate(135 75.6611 71.7719)" fill="black"/>
<rect x="274.004" y="270.115" width="5.5" height="22" transform="rotate(135 274.004 270.115)" fill="black"/>
<circle cx="118.421" cy="205.197" r="41.6427" stroke="black" stroke-width="1.32"/>
<circle cx="211.487" cy="205.197" r="41.6427" stroke="black" stroke-width="1.32"/>
<rect x="160.443" y="202.636" width="9.12716" height="5.3443" fill="black" stroke="black" stroke-width="0.33"/>
<path d="M164.954 83.1602C176.523 83.1602 186.967 86.2879 194.5 91.3096C202.037 96.3344 206.597 103.204 206.597 110.702C206.597 118.2 202.037 125.07 194.5 130.095C186.967 135.116 176.523 138.243 164.954 138.243C153.385 138.243 142.94 135.117 135.407 130.095C127.87 125.07 123.312 118.2 123.312 110.702C123.312 103.204 127.87 96.3344 135.407 91.3096C142.94 86.2878 153.385 83.1602 164.954 83.1602Z" fill="black" stroke="black" stroke-width="1.32"/>
<path d="M101.422 98.1995C112.597 95.2051 123.495 95.5232 132.071 98.4242C140.652 101.327 146.834 106.782 148.774 114.025C150.715 121.268 148.089 129.083 142.109 135.888C136.133 142.688 126.854 148.411 115.679 151.406C104.504 154.4 93.6055 154.083 85.0298 151.182C76.449 148.279 70.2679 142.824 68.3271 135.581C66.3864 128.338 69.0117 120.523 74.9914 113.719C80.9677 106.918 90.2471 101.194 101.422 98.1995Z" fill="black" stroke="black" stroke-width="1.32"/>
<path d="M228.486 98.1995C239.661 101.194 248.94 106.918 254.916 113.718C260.896 120.523 263.522 128.338 261.581 135.581C259.64 142.824 253.458 148.279 244.877 151.182C236.302 154.083 225.404 154.4 214.229 151.406C203.054 148.411 193.774 142.688 187.798 135.888C181.818 129.083 179.193 121.268 181.134 114.025C183.075 106.782 189.256 101.327 197.837 98.4239C206.412 95.5229 217.311 95.2051 228.486 98.1995Z" fill="black" stroke="black" stroke-width="1.32"/>
</svg>
